<?xml version="1.0" encoding="UTF-8" standalone="no"?>
<!-- Created with Inkscape (http://www.inkscape.org/) -->

<svg
   width="100mm"
   height="100mm"
   viewBox="0 0 100 100"
   version="1.1"
   id="svg5"
   xml:space="preserve"
   inkscape:version="1.2.1 (9c6d41e410, 2022-07-14)"
   sodipodi:docname="icon-small.svg"
   xmlns:inkscape="http://www.inkscape.org/namespaces/inkscape"
   xmlns:sodipodi="http://sodipodi.sourceforge.net/DTD/sodipodi-0.dtd"
   xmlns:xlink="http://www.w3.org/1999/xlink"
   xmlns="http://www.w3.org/2000/svg"
   xmlns:svg="http://www.w3.org/2000/svg"
   xmlns:rdf="http://www.w3.org/1999/02/22-rdf-syntax-ns#"
   xmlns:cc="http://creativecommons.org/ns#"
   xmlns:dc="http://purl.org/dc/elements/1.1/"><title
     id="title145">SoundManager Icon - Small</title><sodipodi:namedview
     id="namedview7"
     pagecolor="#ffffff"
     bordercolor="#000000"
     borderopacity="0.25"
     inkscape:showpageshadow="2"
     inkscape:pageopacity="0.0"
     inkscape:pagecheckerboard="0"
     inkscape:deskcolor="#d1d1d1"
     inkscape:document-units="mm"
     showgrid="false"
     inkscape:zoom="0.3990803"
     inkscape:cx="-13.781688"
     inkscape:cy="476.09466"
     inkscape:window-width="1920"
     inkscape:window-height="1137"
     inkscape:window-x="-8"
     inkscape:window-y="537"
     inkscape:window-maximized="1"
     inkscape:current-layer="layer1" /><defs
     id="defs2"><linearGradient
       inkscape:collect="always"
       id="linearGradient2511"><stop
         style="stop-color:#5fbcf1;stop-opacity:1;"
         offset="0"
         id="stop2507" /><stop
         style="stop-color:#1287d0;stop-opacity:1;"
         offset="1"
         id="stop2509" /></linearGradient><linearGradient
       inkscape:collect="always"
       xlink:href="#linearGradient2511"
       id="linearGradient2513"
       x1="47.832874"
       y1="-1.2443984"
       x2="66.713272"
       y2="94.299797"
       gradientUnits="userSpaceOnUse"
       gradientTransform="translate(-0.93759913,-4.9223954)" /><filter
       style="color-interpolation-filters:sRGB;"
       inkscape:label="Drop Shadow"
       id="filter19320"
       x="-0.032994199"
       y="-0.025995454"
       width="1.0885751"
       height="1.0545027"><feFlood
         flood-opacity="0.498039"
         flood-color="rgb(0,0,0)"
         result="flood"
         id="feFlood19310" /><feComposite
         in="flood"
         in2="SourceGraphic"
         operator="in"
         result="composite1"
         id="feComposite19312" /><feGaussianBlur
         in="composite1"
         stdDeviation="0.7"
         result="blur"
         id="feGaussianBlur19314" /><feOffset
         dx="1.5"
         dy="0.5"
         result="offset"
         id="feOffset19316" /><feComposite
         in="SourceGraphic"
         in2="offset"
         operator="over"
         result="composite2"
         id="feComposite19318" /></filter></defs><g
     inkscape:label="Calque 1"
     inkscape:groupmode="layer"
     id="layer1"><path
       style="fill:url(#linearGradient2513);fill-opacity:1;stroke:#186db2;stroke-width:1;stroke-dasharray:none;stroke-opacity:1;filter:url(#filter19320)"
       d="M 31.54957,18.534652 78.000324,-2.1760127 c 0,0 0.241601,64.0897617 0.06051,65.9529347 -0.181088,1.863173 -1.863548,6.913168 -7.462858,10.541171 -3.278149,2.124036 -8.730138,2.331827 -12.44645,1.12899 -3.057846,-0.989715 -5.544503,-3.867007 -6.817977,-6.817977 -0.928171,-2.150812 -0.877944,-4.7803 -0.206605,-7.024581 0.963669,-3.221541 3.056172,-6.299332 5.784948,-8.264216 3.147613,-2.266472 4.568955,-2.881533 8.380939,-3.597869 2.684191,-0.504405 7.079013,-0.206605 7.079013,-0.206605 l 0.08558,-30.638103 -34.703613,14.437309 c 0,0 0.133396,46.221531 -0.03545,47.433648 -0.168846,1.212117 -1.302048,6.690687 -6.632135,9.553978 -3.527145,1.894761 -8.255865,2.28879 -11.983109,0.82642 -2.902729,-1.138874 -5.31725,-3.895618 -6.404766,-6.817976 -1.153923,-3.100805 -1.036801,-6.943172 0.413211,-9.917057 1.86277,-3.820425 5.814889,-6.564166 9.710451,-8.264212 2.415307,-1.054054 8.727555,-1.514093 8.727555,-1.514093 z"
       id="path380"
       sodipodi:nodetypes="cczssssssccczssssscc"
       transform="matrix(1.0233271,0,0,0.95714162,-0.24688527,3.1026022)" /><path
       style="fill:#6ebce1;fill-opacity:0.437309;stroke:none;stroke-width:0.989681;stroke-dasharray:none;stroke-opacity:1"
       d="m 32.503632,65.440612 c 0,0 -6.336439,0.198516 -9.893729,1.721834 -3.076431,1.317404 -5.662457,2.964964 -7.684946,5.502059 -1.159039,1.453948 -1.936294,3.073358 -2.257885,4.861853 -0.245458,1.365082 -0.264534,2.732473 -0.03738,4.100323 0.305951,1.842306 1.666848,4.047893 1.666848,4.047893 0,0 1.176569,-7.094616 3.224136,-10.06883 2.061735,-2.994797 3.904491,-4.275756 6.889444,-6.487726 1.778834,-1.318187 8.093506,-3.677406 8.093506,-3.677406 z"
       id="path30629"
       sodipodi:nodetypes="csssscssc" /><path
       style="fill:#6ebce1;fill-opacity:0.437309;stroke:none;stroke-width:0.989681;stroke-dasharray:none;stroke-opacity:1"
       d="m 74.264744,51.034217 c 0,0 -6.904553,-0.469418 -10.580859,0.782519 -3.287855,1.119652 -6.481728,3.06384 -8.504217,5.600934 -1.15904,1.453948 -2.623424,4.111548 -2.945015,5.900043 -0.245458,1.365083 -0.273891,3.483993 0.279764,4.767732 0.517377,1.199616 1.191143,2.070386 1.191143,2.070386 0,0 2.10285,-5.963961 4.386972,-8.783451 2.326018,-2.871203 2.583086,-3.75666 5.568041,-5.968631 1.778833,-1.318186 5.165236,-2.637514 6.587103,-3.207748 1.288154,-0.516609 4.017068,-1.161784 4.017068,-1.161784 z"
       id="path30629-5"
       sodipodi:nodetypes="csssscsssc" /><path
       style="fill:#91cce8;fill-opacity:0.437309;stroke:none;stroke-width:0.989681;stroke-dasharray:none;stroke-opacity:1"
       d="M 32.548943,21.163387 79.029375,1.7529325 c 0,0 -6.201092,7.7977822 -10.359817,10.5796555 -7.007793,4.687683 -16.500269,5.234945 -23.679584,9.689778 -4.735604,2.938486 -12.434426,10.975157 -12.434426,10.975157 z"
       id="path33687"
       sodipodi:nodetypes="ccsscc" /></g><metadata
     id="metadata143"><rdf:RDF><cc:License
         rdf:about="http://creativecommons.org/licenses/by-nc-sa/4.0/"><cc:permits
           rdf:resource="http://creativecommons.org/ns#Reproduction" /><cc:permits
           rdf:resource="http://creativecommons.org/ns#Distribution" /><cc:requires
           rdf:resource="http://creativecommons.org/ns#Notice" /><cc:requires
           rdf:resource="http://creativecommons.org/ns#Attribution" /><cc:prohibits
           rdf:resource="http://creativecommons.org/ns#CommercialUse" /><cc:permits
           rdf:resource="http://creativecommons.org/ns#DerivativeWorks" /><cc:requires
           rdf:resource="http://creativecommons.org/ns#ShareAlike" /></cc:License><cc:Work
         rdf:about=""><cc:license
           rdf:resource="http://creativecommons.org/licenses/by-nc-sa/4.0/" /><dc:title>SoundManager Icon - Small</dc:title><dc:date>2024-04-14</dc:date><dc:creator><cc:Agent><dc:title>https://github.com/ORelio/</dc:title></cc:Agent></dc:creator><dc:rights><cc:Agent><dc:title>CC BY-NC-SA v4.0</dc:title></cc:Agent></dc:rights></cc:Work></rdf:RDF></metadata></svg>
