<?xml version="1.0" encoding="UTF-8" standalone="no"?>
<!-- Created with Inkscape (http://www.inkscape.org/) -->

<svg
   width="100mm"
   height="100mm"
   viewBox="0 0 100 100"
   version="1.1"
   id="svg5"
   xml:space="preserve"
   inkscape:version="1.2.1 (9c6d41e410, 2022-07-14)"
   sodipodi:docname="icon-medium.svg"
   xmlns:inkscape="http://www.inkscape.org/namespaces/inkscape"
   xmlns:sodipodi="http://sodipodi.sourceforge.net/DTD/sodipodi-0.dtd"
   xmlns:xlink="http://www.w3.org/1999/xlink"
   xmlns="http://www.w3.org/2000/svg"
   xmlns:svg="http://www.w3.org/2000/svg"
   xmlns:rdf="http://www.w3.org/1999/02/22-rdf-syntax-ns#"
   xmlns:cc="http://creativecommons.org/ns#"
   xmlns:dc="http://purl.org/dc/elements/1.1/"><title
     id="title284">SoundManager Icon - Medium</title><sodipodi:namedview
     id="namedview7"
     pagecolor="#ffffff"
     bordercolor="#000000"
     borderopacity="0.25"
     inkscape:showpageshadow="2"
     inkscape:pageopacity="0.0"
     inkscape:pagecheckerboard="0"
     inkscape:deskcolor="#d1d1d1"
     inkscape:document-units="mm"
     showgrid="false"
     inkscape:zoom="1.6"
     inkscape:cx="143.4375"
     inkscape:cy="186.25"
     inkscape:window-width="1920"
     inkscape:window-height="1137"
     inkscape:window-x="-8"
     inkscape:window-y="537"
     inkscape:window-maximized="1"
     inkscape:current-layer="layer1" /><defs
     id="defs2"><linearGradient
       inkscape:collect="always"
       id="linearGradient2511"><stop
         style="stop-color:#5fbcf1;stop-opacity:1;"
         offset="0"
         id="stop2507" /><stop
         style="stop-color:#1287d0;stop-opacity:1;"
         offset="1"
         id="stop2509" /></linearGradient><linearGradient
       inkscape:collect="always"
       xlink:href="#linearGradient2511"
       id="linearGradient2513"
       x1="47.832874"
       y1="-1.2443984"
       x2="66.713272"
       y2="94.299797"
       gradientUnits="userSpaceOnUse" /><filter
       style="color-interpolation-filters:sRGB;"
       inkscape:label="Drop Shadow"
       id="filter19320"
       x="-0.032994199"
       y="-0.025995454"
       width="1.0885751"
       height="1.0545027"><feFlood
         flood-opacity="0.498039"
         flood-color="rgb(0,0,0)"
         result="flood"
         id="feFlood19310" /><feComposite
         in="flood"
         in2="SourceGraphic"
         operator="in"
         result="composite1"
         id="feComposite19312" /><feGaussianBlur
         in="composite1"
         stdDeviation="0.7"
         result="blur"
         id="feGaussianBlur19314" /><feOffset
         dx="1.5"
         dy="0.5"
         result="offset"
         id="feOffset19316" /><feComposite
         in="SourceGraphic"
         in2="offset"
         operator="over"
         result="composite2"
         id="feComposite19318" /></filter></defs><g
     inkscape:label="Calque 1"
     inkscape:groupmode="layer"
     id="layer1"><path
       style="fill:url(#linearGradient2513);fill-opacity:1;stroke:#186db2;stroke-width:1;stroke-dasharray:none;stroke-opacity:1;filter:url(#filter19320)"
       d="M 32.487169,23.457047 78.937923,2.7463827 c 0,0 0.241601,64.0897613 0.06051,65.9529343 -0.181088,1.863173 -1.863548,6.913168 -7.462858,10.541171 -3.278149,2.124036 -8.730138,2.331827 -12.44645,1.12899 -3.057846,-0.989715 -5.544503,-3.867007 -6.817977,-6.817977 -0.928171,-2.150812 -0.877944,-4.7803 -0.206605,-7.024581 0.963669,-3.221541 3.056172,-6.299332 5.784948,-8.264216 3.147613,-2.266472 4.568955,-2.881533 8.380939,-3.597869 2.684191,-0.504405 7.079013,-0.206605 7.079013,-0.206605 l 0.08558,-30.638103 -34.703613,14.437309 c 0,0 0.133396,46.221531 -0.03545,47.433648 -0.168846,1.212117 -1.302048,6.690687 -6.632135,9.553978 -3.527145,1.894761 -8.255865,2.28879 -11.983109,0.82642 -2.902729,-1.138874 -5.31725,-3.895618 -6.404766,-6.817976 -1.153923,-3.100805 -1.036801,-6.943172 0.413211,-9.917057 1.86277,-3.820425 5.814889,-6.564166 9.710451,-8.264212 2.415307,-1.054054 8.727555,-1.514093 8.727555,-1.514093 z"
       id="path380"
       sodipodi:nodetypes="cczssssssccczssssscc" /><path
       style="fill:#6ebce1;fill-opacity:0.437309;stroke:none;stroke-width:1;stroke-dasharray:none;stroke-opacity:1"
       d="m 32.941556,70.051743 c 0,0 -6.191998,0.207404 -9.668199,1.798934 -3.006301,1.376393 -5.533378,3.097728 -7.509763,5.748427 -1.132619,1.519052 -1.892156,3.210975 -2.206416,5.079554 -0.239862,1.426208 -0.258504,2.854827 -0.03652,4.283926 0.298977,1.924799 1.628852,4.229146 1.628852,4.229146 0,0 1.149749,-7.412294 3.15064,-10.519686 2.014738,-3.128897 3.815487,-4.467213 6.732398,-6.77823 1.738284,-1.377212 7.909011,-3.842071 7.909011,-3.842071 z"
       id="path30629"
       sodipodi:nodetypes="csssscssc" /><path
       style="fill:#6ebce1;fill-opacity:0.437309;stroke:none;stroke-width:1;stroke-dasharray:none;stroke-opacity:1"
       d="m 73.750708,55.000266 c 0,0 -6.747162,-0.490437 -10.339666,0.817558 -3.212906,1.169788 -6.333974,3.201031 -8.310359,5.85173 -1.132619,1.519052 -2.563623,4.295653 -2.877883,6.164232 -0.239862,1.426208 -0.267648,3.639997 0.273388,4.981219 0.505582,1.253331 1.16399,2.163093 1.16399,2.163093 0,0 2.054914,-6.231012 4.286969,-9.176752 2.272995,-2.999768 2.524204,-3.924874 5.441115,-6.235891 1.738284,-1.377212 5.047493,-2.755615 6.436948,-3.351383 1.25879,-0.539742 3.925498,-1.213806 3.925498,-1.213806 z"
       id="path30629-5"
       sodipodi:nodetypes="csssscsssc" /><path
       style="fill:#91cce8;fill-opacity:0.437309;stroke:none;stroke-width:1;stroke-dasharray:none;stroke-opacity:1"
       d="M 32.985834,23.791896 78.406727,3.5122908 c 0,0 -6.059737,8.1469472 -10.123662,11.0533852 -6.848047,4.897586 -16.124138,5.469353 -23.139799,10.123662 -4.627653,3.070064 -12.150977,11.466596 -12.150977,11.466596 z"
       id="path33687"
       sodipodi:nodetypes="ccsscc" /></g><metadata
     id="metadata280"><rdf:RDF><cc:License
         rdf:about="http://creativecommons.org/licenses/by-nc-sa/4.0/"><cc:permits
           rdf:resource="http://creativecommons.org/ns#Reproduction" /><cc:permits
           rdf:resource="http://creativecommons.org/ns#Distribution" /><cc:requires
           rdf:resource="http://creativecommons.org/ns#Notice" /><cc:requires
           rdf:resource="http://creativecommons.org/ns#Attribution" /><cc:prohibits
           rdf:resource="http://creativecommons.org/ns#CommercialUse" /><cc:permits
           rdf:resource="http://creativecommons.org/ns#DerivativeWorks" /><cc:requires
           rdf:resource="http://creativecommons.org/ns#ShareAlike" /></cc:License><cc:Work
         rdf:about=""><cc:license
           rdf:resource="http://creativecommons.org/licenses/by-nc-sa/4.0/" /><dc:creator><cc:Agent><dc:title>https://github.com/ORelio/</dc:title></cc:Agent></dc:creator><dc:title>SoundManager Icon - Medium</dc:title><dc:date>2024-04-14</dc:date><dc:rights><cc:Agent><dc:title>CC BY-NC-SA v4.0</dc:title></cc:Agent></dc:rights></cc:Work></rdf:RDF></metadata></svg>
